<?xml version="1.0" encoding="utf-8"?>
<!-- Generator: Adobe Illustrator 19.2.1, SVG Export Plug-In . SVG Version: 6.00 Build 0)  -->
<svg version="1.1" id="Layer_1" xmlns="http://www.w3.org/2000/svg" xmlns:xlink="http://www.w3.org/1999/xlink" x="0px" y="0px"
	 viewBox="0 0 32 32" style="enable-background:new 0 0 32 32;" xml:space="preserve">
<style type="text/css">
	.st0{fill:#010101;}
</style>
<path class="st0" d="M18,2c0,1.1-0.9,2-2,2s-2-0.9-2-2s0.9-2,2-2S18,0.9,18,2z"/>
<path class="st0" d="M14,30c0-1.1,0.9-2,2-2c1.1,0,2,0.9,2,2c0,1.1-0.9,2-2,2C14.9,32,14,31.1,14,30z"/>
<path class="st0" d="M2,14c1.1,0,2,0.9,2,2c0,1.1-0.9,2-2,2s-2-0.9-2-2C0,14.9,0.9,14,2,14z"/>
<path class="st0" d="M30,18c-1.1,0-2-0.9-2-2c0-1.1,0.9-2,2-2c1.1,0,2,0.9,2,2C32,17.1,31.1,18,30,18z"/>
<path class="st0" d="M16,12c2.2,0,4,1.8,4,4s-1.8,4-4,4s-4-1.8-4-4S13.8,12,16,12 M16,8c-4.4,0-8,3.6-8,8s3.6,8,8,8s8-3.6,8-8
	S20.4,8,16,8L16,8z"/>
<path class="st0" d="M7.4,4.6c0.8,0.8,0.8,2,0,2.8c-0.8,0.8-2,0.8-2.8,0s-0.8-2,0-2.8C5.4,3.8,6.6,3.8,7.4,4.6z"/>
<circle class="st0" cx="6" cy="26" r="2"/>
<path class="st0" d="M24.6,27.4c-0.8-0.8-0.8-2,0-2.8c0.8-0.8,2-0.8,2.8,0c0.8,0.8,0.8,2,0,2.8C26.6,28.2,25.4,28.2,24.6,27.4z"/>
<path class="st0" d="M27.4,7.4c-0.8,0.8-2,0.8-2.8,0c-0.8-0.8-0.8-2,0-2.8c0.8-0.8,2-0.8,2.8,0C28.2,5.4,28.2,6.6,27.4,7.4z"/>
</svg>
