<?xml version="1.0" standalone="no"?>
<!DOCTYPE svg PUBLIC "-//W3C//DTD SVG 20010904//EN"
 "http://www.w3.org/TR/2001/REC-SVG-20010904/DTD/svg10.dtd">
<svg version="1.0" xmlns="http://www.w3.org/2000/svg"
 width="101.000000pt" height="91.000000pt" viewBox="0 0 101.000000 91.000000"
 preserveAspectRatio="xMidYMid meet">

<g transform="translate(0.000000,91.000000) scale(0.100000,-0.100000)"
fill="#000000" stroke="none">
<path d="M390 896 c-170 -37 -305 -178 -366 -382 -12 -38 -18 -93 -18 -154 0
-83 3 -103 27 -155 52 -111 102 -145 261 -177 84 -16 119 -19 211 -12 61 4
145 7 187 5 94 -3 146 17 199 76 83 92 130 262 110 396 -16 102 -68 204 -134
262 -95 84 -276 156 -387 154 -19 0 -60 -6 -90 -13z m175 -212 c31 -20 49 -73
36 -106 -13 -35 -58 -68 -91 -68 -33 0 -78 33 -91 68 -12 32 5 87 34 107 28
20 81 19 112 -1z m-145 -144 c0 -6 -30 -10 -70 -10 l-70 0 0 -30 0 -30 230 0
230 0 0 30 0 30 -70 0 c-42 0 -70 4 -70 10 0 7 29 10 78 8 l77 -3 3 -67 c2
-43 -1 -68 -8 -68 -5 0 -10 9 -10 20 0 19 -7 20 -230 20 l-230 0 0 -115 0
-115 230 0 230 0 0 80 c0 49 4 80 10 80 7 0 10 -32 8 -87 l-3 -88 -245 0 -245
0 -3 160 c-1 87 0 165 2 172 6 16 156 19 156 3z m-85 -40 c-3 -5 -10 -10 -16
-10 -5 0 -9 5 -9 10 0 6 7 10 16 10 8 0 12 -4 9 -10z m35 0 c0 -5 -4 -10 -10
-10 -5 0 -10 5 -10 10 0 6 5 10 10 10 6 0 10 -4 10 -10z m40 0 c0 -5 -4 -10
-10 -10 -5 0 -10 5 -10 10 0 6 5 10 10 10 6 0 10 -4 10 -10z m90 -109 c0 -26
-5 -41 -16 -45 -20 -8 -148 -8 -168 0 -16 6 -23 64 -9 77 3 4 48 7 100 7 l93
0 0 -39z m134 33 c9 -3 16 -16 16 -28 0 -16 11 -27 35 -39 19 -9 35 -21 35
-27 0 -5 -16 -10 -35 -10 -38 0 -44 -12 -20 -37 25 -25 12 -36 -43 -38 -43 -2
-52 1 -52 15 0 10 7 23 15 30 24 20 17 30 -21 30 -44 0 -42 19 4 39 22 10 32
22 32 36 0 32 8 39 34 29z m-134 -104 c0 -6 -40 -10 -100 -10 -60 0 -100 4
-100 10 0 6 40 10 100 10 60 0 100 -4 100 -10z m-7 -35 c-3 -11 -157 -20 -180
-11 -8 3 -11 11 -8 16 9 14 191 9 188 -5z m7 -35 c0 -6 -40 -10 -100 -10 -60
0 -100 4 -100 10 0 6 40 10 100 10 60 0 100 -4 100 -10z"/>
<path d="M452 658 c-14 -14 -16 -38 -3 -38 5 0 11 11 13 25 6 29 6 29 -10 13z"/>
<path d="M486 652 c-4 -13 -5 -26 -2 -29 10 -11 18 4 14 29 l-4 23 -8 -23z"/>
<path d="M520 648 c0 -16 5 -28 10 -28 13 0 13 20 0 40 -8 12 -10 9 -10 -12z"/>
<path d="M558 645 c2 -14 8 -25 13 -25 14 0 11 26 -5 39 -11 9 -12 6 -8 -14z"/>
<path d="M440 587 c0 -7 6 -21 13 -32 13 -16 14 -15 9 13 -4 31 -22 46 -22 19z"/>
<path d="M480 583 c0 -10 5 -25 10 -33 7 -11 10 -7 10 18 0 17 -4 32 -10 32
-5 0 -10 -8 -10 -17z"/>
<path d="M520 568 c0 -25 3 -29 10 -18 13 20 13 50 0 50 -5 0 -10 -15 -10 -32z"/>
<path d="M558 575 c-6 -28 6 -34 16 -9 8 22 7 34 -3 34 -5 0 -11 -11 -13 -25z"/>
<path d="M320 390 c0 -18 7 -20 80 -20 73 0 80 2 80 20 0 18 -7 20 -80 20 -73
0 -80 -2 -80 -20z"/>
<path d="M621 393 c0 -12 -10 -28 -21 -36 l-21 -14 21 -6 c22 -6 27 -36 8 -55
-9 -9 -6 -12 17 -12 23 0 26 3 17 12 -19 19 -14 49 10 56 21 5 21 6 2 12 -10
4 -22 20 -25 36 -5 22 -7 24 -8 7z"/>
</g>
</svg>
