<?xml version="1.0" encoding="utf-8"?>
<!-- Generator: Adobe Illustrator 24.0.0, SVG Export Plug-In . SVG Version: 6.00 Build 0)  -->
<svg version="1.1" id="Layer_1" xmlns="http://www.w3.org/2000/svg" xmlns:xlink="http://www.w3.org/1999/xlink" x="0px" y="0px"
	 viewBox="0 0 34.2 33.5" style="enable-background:new 0 0 34.2 33.5;" xml:space="preserve">
<style type="text/css">
	.st0{display:none;}
	.st1{display:inline;}
	.st2{fill:none;stroke:#024E44;stroke-width:1.5;stroke-linecap:round;stroke-miterlimit:10;}
	.st3{fill:#FFFFFF;stroke:#024E44;stroke-miterlimit:10;}
	.st4{fill:#024E44;}
	.st5{fill:#B5BC34;}
	.st6{fill:#DDCF7F;}
	.st7{fill:#777777;}
	.st8{fill:#FFFFFF;}
</style>
<g class="st0">
	<g class="st1">
		<g>
			<line class="st2" x1="17.1" y1="3.3" x2="17.1" y2="30"/>
			<line class="st2" x1="5.3" y1="9.9" x2="28.4" y2="23"/>
			<line class="st2" x1="5.7" y1="23.3" x2="28.4" y2="10.1"/>
			<line class="st2" x1="13.4" y1="5.8" x2="16.8" y2="8.1"/>
			<line class="st2" x1="20.7" y1="6" x2="17.4" y2="8"/>
			<line class="st2" x1="9.5" y1="7.6" x2="9.9" y2="12.2"/>
			<line class="st2" x1="5.8" y1="14.5" x2="10" y2="12.1"/>
			<line class="st2" x1="5.7" y1="18.9" x2="9.9" y2="20.8"/>
			<line class="st2" x1="9.5" y1="25.4" x2="10.2" y2="20.8"/>
			<line class="st2" x1="13.2" y1="27.5" x2="16.8" y2="24.9"/>
			<line class="st2" x1="20.9" y1="27.4" x2="17.3" y2="24.9"/>
			<line class="st2" x1="24.4" y1="7.8" x2="24" y2="12.3"/>
			<line class="st2" x1="28.2" y1="14.8" x2="23.9" y2="12.5"/>
			<line class="st2" x1="28.4" y1="18.6" x2="24.8" y2="20.4"/>
			<line class="st2" x1="24.5" y1="25.4" x2="24" y2="20.6"/>
		</g>
		<circle class="st3" cx="17.1" cy="16.9" r="1.9"/>
	</g>
</g>
<g class="st0">
	<g class="st1">
		<g>
			<path class="st4" d="M25.5,23.5H6.3c-2.8,0-5.1-2.3-5.1-5.1s2.2-5,5-5.1c0.4-4.8,4.4-8.7,9.4-8.7c3.3,0,6.4,1.7,8.1,4.6
				C24.3,9.1,24.9,9,25.5,9c4,0,7.2,3.2,7.2,7.2C32.8,20.2,29.5,23.5,25.5,23.5z M6.3,14.8c-2,0-3.6,1.6-3.6,3.6S4.3,22,6.3,22h19.2
				c3.2,0,5.8-2.6,5.8-5.8s-2.6-5.8-5.8-5.8c-0.7,0-1.3,0.1-1.9,0.3L23,11l-0.3-0.6c-1.4-2.7-4.1-4.3-7.1-4.3
				c-4.4,0-7.9,3.6-7.9,7.9v0.8l-0.8-0.1C6.7,14.8,6.5,14.8,6.3,14.8z"/>
		</g>
		<g>
			<path class="st4" d="M7.8,25.6l-2.2,2.2c-0.3,0.3-0.3,0.7,0,1C5.7,29,5.9,29,6.1,29s0.4-0.1,0.5-0.2l2.2-2.2c0.3-0.3,0.3-0.7,0-1
				S8.1,25.3,7.8,25.6z"/>
			<path class="st4" d="M16.5,25.6l-2.2,2.2c-0.3,0.3-0.3,0.7,0,1c0.1,0.1,0.3,0.2,0.5,0.2s0.4-0.1,0.5-0.2l2.2-2.2
				c0.3-0.3,0.3-0.7,0-1C17.3,25.3,16.8,25.3,16.5,25.6z"/>
			<path class="st4" d="M26.3,25.6c-0.3-0.3-0.7-0.3-1,0l-2.2,2.2c-0.3,0.3-0.3,0.7,0,1c0.1,0.1,0.3,0.2,0.5,0.2s0.4-0.1,0.5-0.2
				l2.2-2.2C26.6,26.3,26.6,25.9,26.3,25.6z"/>
		</g>
	</g>
</g>
<g id="Layer_3" class="st0">
	<g class="st1">
		<path class="st5" d="M7.1,16.6c0-0.5-0.4-0.9-0.9-0.9h-3c-0.5,0-0.9,0.4-0.9,0.9s0.4,0.9,0.9,0.9h3C6.7,17.5,7.1,17.1,7.1,16.6z"
			/>
		<path class="st5" d="M31.2,15.7h-3c-0.5,0-0.9,0.4-0.9,0.9s0.4,0.9,0.9,0.9h3c0.5,0,0.9-0.4,0.9-0.9
			C32.1,16.1,31.7,15.7,31.2,15.7z"/>
		<path class="st5" d="M7.2,21.3l-2.6,1.5C4.2,23.1,4,23.6,4.3,24c0.2,0.3,0.5,0.4,0.8,0.4c0.2,0,0.3,0,0.4-0.1l2.6-1.5
			c0.4-0.2,0.6-0.8,0.3-1.2C8.2,21.2,7.7,21,7.2,21.3z"/>
		<path class="st5" d="M26.7,12c0.2,0,0.3,0,0.4-0.1l2.6-1.5c0.4-0.2,0.6-0.8,0.3-1.2c-0.2-0.4-0.8-0.6-1.2-0.3l-2.6,1.5
			c-0.4,0.2-0.6,0.8-0.3,1.2C26.1,11.8,26.4,12,26.7,12z"/>
		<path class="st5" d="M12.2,25.3c-0.4-0.2-1-0.1-1.2,0.3l-1.5,2.6c-0.2,0.4-0.1,1,0.3,1.2c0.1,0.1,0.3,0.1,0.4,0.1
			c0.3,0,0.6-0.2,0.8-0.4l1.5-2.6C12.7,26.1,12.6,25.5,12.2,25.3z"/>
		<path class="st5" d="M24.6,3.7c-0.4-0.2-1-0.1-1.2,0.3l-1.5,2.6c-0.2,0.4-0.1,1,0.3,1.2C22.4,7.9,22.5,8,22.7,8
			c0.3,0,0.6-0.2,0.8-0.4L25,4.9C25.2,4.5,25.1,3.9,24.6,3.7z"/>
		<path class="st5" d="M17.2,26.6L17.2,26.6c-0.5,0-0.9,0.4-0.9,0.9v3c0,0.5,0.4,0.9,0.9,0.9l0,0c0.5,0,0.9-0.4,0.9-0.9v-3
			C18.1,27,17.7,26.6,17.2,26.6z"/>
		<path class="st5" d="M17.2,6.5c0.5,0,0.9-0.4,0.9-0.9v-3c0-0.5-0.4-0.9-0.9-0.9s-0.9,0.4-0.9,0.9v3C16.3,6.1,16.7,6.5,17.2,6.5z"
			/>
		<path class="st5" d="M23.4,25.6c-0.2-0.4-0.8-0.6-1.2-0.3c-0.4,0.2-0.6,0.8-0.3,1.2l1.5,2.6c0.2,0.3,0.5,0.4,0.8,0.4
			c0.2,0,0.3,0,0.4-0.1c0.4-0.2,0.6-0.8,0.3-1.2L23.4,25.6z"/>
		<path class="st5" d="M10.9,7.5C11.1,7.8,11.4,8,11.7,8c0.2,0,0.3,0,0.4-0.1c0.4-0.2,0.6-0.8,0.3-1.2L11,4
			c-0.2-0.4-0.8-0.6-1.2-0.3C9.3,3.9,9.2,4.5,9.4,4.9L10.9,7.5z"/>
		<path class="st5" d="M29.8,22.8l-2.6-1.5c-0.4-0.2-1-0.1-1.2,0.3s-0.1,1,0.3,1.2l2.6,1.5c0.1,0.1,0.3,0.1,0.4,0.1
			c0.3,0,0.6-0.2,0.8-0.4C30.3,23.6,30.2,23.1,29.8,22.8z"/>
		<path class="st5" d="M8.1,10.3L5.5,8.8c-0.4-0.2-1-0.1-1.2,0.3c-0.2,0.4-0.1,1,0.3,1.2l2.6,1.5C7.4,12,7.5,12,7.7,12
			c0.3,0,0.6-0.2,0.8-0.4C8.7,11.1,8.6,10.6,8.1,10.3z"/>
		<circle class="st5" cx="17.2" cy="16.6" r="7.2"/>
	</g>
</g>
<g id="Layer_4">
	<g>
		<g>
			<path class="st6" d="M7.8,14.9c0-0.5-0.4-0.8-0.8-0.8H4.2c-0.5,0-0.8,0.4-0.8,0.8c0,0.5,0.4,0.8,0.8,0.8H7
				C7.4,15.8,7.8,15.4,7.8,14.9z"/>
			<path class="st6" d="M29.8,14.1H27c-0.5,0-0.8,0.4-0.8,0.8c0,0.5,0.4,0.8,0.8,0.8h2.8c0.5,0,0.8-0.4,0.8-0.8
				C30.6,14.5,30.2,14.1,29.8,14.1z"/>
			<path class="st6" d="M7.9,19.2l-2.4,1.4c-0.4,0.2-0.5,0.7-0.3,1.1c0.2,0.3,0.4,0.4,0.7,0.4c0.1,0,0.3,0,0.4-0.1l2.4-1.4
				c0.4-0.2,0.5-0.7,0.3-1.1S8.3,19,7.9,19.2z"/>
			<path class="st6" d="M25.7,10.7c0.1,0,0.3,0,0.4-0.1l2.4-1.4C28.9,9,29,8.5,28.8,8.1c-0.2-0.4-0.7-0.5-1.1-0.3l-2.4,1.4
				c-0.4,0.2-0.5,0.7-0.3,1.1C25.1,10.6,25.4,10.7,25.7,10.7z"/>
			<path class="st6" d="M12.4,22.9c-0.4-0.2-0.9-0.1-1.1,0.3l-1.4,2.4c-0.2,0.4-0.1,0.9,0.3,1.1c0.1,0.1,0.3,0.1,0.4,0.1
				c0.3,0,0.6-0.1,0.7-0.4l1.4-2.4C12.9,23.6,12.8,23.1,12.4,22.9z"/>
			<path class="st6" d="M23.8,3.2c-0.4-0.2-0.9-0.1-1.1,0.3l-1.4,2.4c-0.2,0.4-0.1,0.9,0.3,1.1c0.1,0,0.3,0.1,0.4,0.1
				c0.3,0,0.6-0.1,0.7-0.4l1.4-2.4C24.3,3.9,24.2,3.4,23.8,3.2z"/>
			<path class="st6" d="M17,24.1L17,24.1c-0.5,0-0.8,0.4-0.8,0.8v2.8c0,0.5,0.4,0.8,0.8,0.8l0,0c0.5,0,0.8-0.4,0.8-0.8v-2.8
				C17.8,24.5,17.4,24.1,17,24.1z"/>
			<path class="st6" d="M17,5.7c0.5,0,0.8-0.4,0.8-0.8V2.1c0-0.5-0.4-0.8-0.8-0.8c-0.5,0-0.8,0.4-0.8,0.8v2.8
				C16.2,5.4,16.5,5.7,17,5.7z"/>
			<path class="st6" d="M11.3,6.7C11.5,7,11.7,7.1,12,7.1c0.1,0,0.3,0,0.4-0.1c0.4-0.2,0.5-0.7,0.3-1.1l-1.4-2.4
				c-0.2-0.4-0.7-0.5-1.1-0.3C9.8,3.4,9.7,3.9,9.9,4.3L11.3,6.7z"/>
			<path class="st6" d="M8.7,9.2L6.3,7.8C5.9,7.6,5.4,7.7,5.2,8.1C5,8.5,5.1,9,5.5,9.3l2.4,1.4c0.1,0.1,0.3,0.1,0.4,0.1
				c0.3,0,0.6-0.1,0.7-0.4C9.3,9.9,9.1,9.4,8.7,9.2z"/>
			<circle class="st6" cx="17" cy="14.9" r="6.5"/>
		</g>
		<g>
			<path class="st4" d="M24.9,18.6c0,0-1.6,3-2.5,5.5c-0.8,2.1,0.3,3.7,1.9,3.9c3.1,0.3,4-1.6,3-4.2C25.5,19.4,24.9,18.6,24.9,18.6z
				"/>
			<path class="st7" d="M25,18.6c0,0,1.6,3,2.5,5.5c0.8,2.1-0.3,3.7-1.9,3.9c-3.1,0.3-4.1-1.6-3-4.2C24.5,19.4,25,18.6,25,18.6z"/>
			<g>
				<path class="st4" d="M24,23.6c-0.5,0.6-0.8,1.5-0.7,2.3"/>
				<g>
					<path class="st8" d="M23.7,23.5C23.1,24.2,22.9,25,23,26c0,0.4,0.6,0.4,0.6,0c-0.1-0.8,0.2-1.5,0.6-2.2
						C24.5,23.5,23.9,23.1,23.7,23.5L23.7,23.5z"/>
				</g>
			</g>
		</g>
	</g>
</g>
</svg>
