<?xml version="1.0" encoding="utf-8"?>
<!-- Generator: Adobe Illustrator 24.0.0, SVG Export Plug-In . SVG Version: 6.00 Build 0)  -->
<svg version="1.1" id="Layer_1" xmlns="http://www.w3.org/2000/svg" xmlns:xlink="http://www.w3.org/1999/xlink" x="0px" y="0px"
	 viewBox="0 0 34.2 33.5" style="enable-background:new 0 0 34.2 33.5;" xml:space="preserve">
<style type="text/css">
	.st0{display:none;}
	.st1{display:inline;}
	.st2{fill:none;stroke:#024E44;stroke-width:1.5;stroke-linecap:round;stroke-miterlimit:10;}
	.st3{fill:#FFFFFF;stroke:#024E44;stroke-miterlimit:10;}
	.st4{fill:#777777;}
</style>
<g id="Layer_1_1_" class="st0">
	<g class="st1">
		<g>
			<line class="st2" x1="17.1" y1="3.3" x2="17.1" y2="30"/>
			<line class="st2" x1="5.3" y1="9.9" x2="28.4" y2="23"/>
			<line class="st2" x1="5.7" y1="23.3" x2="28.4" y2="10.1"/>
			<line class="st2" x1="13.4" y1="5.8" x2="16.8" y2="8.1"/>
			<line class="st2" x1="20.7" y1="6" x2="17.4" y2="8"/>
			<line class="st2" x1="9.5" y1="7.6" x2="9.9" y2="12.2"/>
			<line class="st2" x1="5.8" y1="14.5" x2="10" y2="12.1"/>
			<line class="st2" x1="5.7" y1="18.9" x2="9.9" y2="20.8"/>
			<line class="st2" x1="9.5" y1="25.4" x2="10.2" y2="20.8"/>
			<line class="st2" x1="13.2" y1="27.5" x2="16.8" y2="24.9"/>
			<line class="st2" x1="20.9" y1="27.4" x2="17.3" y2="24.9"/>
			<line class="st2" x1="24.4" y1="7.8" x2="24" y2="12.3"/>
			<line class="st2" x1="28.2" y1="14.8" x2="23.9" y2="12.5"/>
			<line class="st2" x1="28.4" y1="18.6" x2="24.8" y2="20.4"/>
			<line class="st2" x1="24.5" y1="25.4" x2="24" y2="20.6"/>
		</g>
		<circle class="st3" cx="17.1" cy="16.9" r="1.9"/>
	</g>
</g>
<g id="Layer_2_1_">
	<g>
		<g>
			<path class="st4" d="M25.5,23.5H6.3c-2.8,0-5.1-2.3-5.1-5.1s2.2-5,5-5.1c0.4-4.8,4.4-8.7,9.4-8.7c3.3,0,6.4,1.7,8.1,4.6
				C24.3,9.1,24.9,9,25.5,9c4,0,7.2,3.2,7.2,7.2C32.8,20.2,29.5,23.5,25.5,23.5z M6.3,14.8c-2,0-3.6,1.6-3.6,3.6S4.3,22,6.3,22h19.2
				c3.2,0,5.8-2.6,5.8-5.8s-2.6-5.8-5.8-5.8c-0.7,0-1.3,0.1-1.9,0.3L23,11l-0.3-0.6c-1.4-2.7-4.1-4.3-7.1-4.3
				c-4.4,0-7.9,3.6-7.9,7.9v0.8l-0.8-0.1C6.7,14.8,6.5,14.8,6.3,14.8z"/>
		</g>
		<g>
			<path class="st4" d="M7.8,25.6l-2.2,2.2c-0.3,0.3-0.3,0.7,0,1C5.7,29,5.9,29,6.1,29s0.4-0.1,0.5-0.2l2.2-2.2c0.3-0.3,0.3-0.7,0-1
				S8.1,25.3,7.8,25.6z"/>
			<path class="st4" d="M16.5,25.6l-2.2,2.2c-0.3,0.3-0.3,0.7,0,1c0.1,0.1,0.3,0.2,0.5,0.2s0.4-0.1,0.5-0.2l2.2-2.2
				c0.3-0.3,0.3-0.7,0-1C17.3,25.3,16.8,25.3,16.5,25.6z"/>
			<path class="st4" d="M26.3,25.6c-0.3-0.3-0.7-0.3-1,0l-2.2,2.2c-0.3,0.3-0.3,0.7,0,1c0.1,0.1,0.3,0.2,0.5,0.2s0.4-0.1,0.5-0.2
				l2.2-2.2C26.6,26.3,26.6,25.9,26.3,25.6z"/>
		</g>
	</g>
</g>
</svg>
