<?xml version="1.0" encoding="utf-8"?>
<!-- Generator: Adobe Illustrator 24.0.0, SVG Export Plug-In . SVG Version: 6.00 Build 0)  -->
<svg version="1.1" id="Layer_1" xmlns="http://www.w3.org/2000/svg" xmlns:xlink="http://www.w3.org/1999/xlink" x="0px" y="0px"
	 viewBox="0 0 34.2 33.5" style="enable-background:new 0 0 34.2 33.5;" xml:space="preserve">
<style type="text/css">
	.st0{fill:none;stroke:#777777;stroke-width:1.5;stroke-linecap:round;stroke-miterlimit:10;}
	.st1{fill:#FFFFFF;stroke:#777777;stroke-miterlimit:10;}
</style>
<g>
	<g>
		<line class="st0" x1="17.1" y1="3.3" x2="17.1" y2="30"/>
		<line class="st0" x1="5.3" y1="9.9" x2="28.4" y2="23"/>
		<line class="st0" x1="5.7" y1="23.3" x2="28.4" y2="10.1"/>
		<line class="st0" x1="13.4" y1="5.8" x2="16.8" y2="8.1"/>
		<line class="st0" x1="20.7" y1="6" x2="17.4" y2="8"/>
		<line class="st0" x1="9.5" y1="7.6" x2="9.9" y2="12.2"/>
		<line class="st0" x1="5.8" y1="14.5" x2="10" y2="12.1"/>
		<line class="st0" x1="5.7" y1="18.9" x2="9.9" y2="20.8"/>
		<line class="st0" x1="9.5" y1="25.4" x2="10.2" y2="20.8"/>
		<line class="st0" x1="13.2" y1="27.5" x2="16.8" y2="24.9"/>
		<line class="st0" x1="20.9" y1="27.4" x2="17.3" y2="24.9"/>
		<line class="st0" x1="24.4" y1="7.8" x2="24" y2="12.3"/>
		<line class="st0" x1="28.2" y1="14.8" x2="23.9" y2="12.5"/>
		<line class="st0" x1="28.4" y1="18.6" x2="24.8" y2="20.4"/>
		<line class="st0" x1="24.5" y1="25.4" x2="24" y2="20.6"/>
	</g>
	<circle class="st1" cx="17.1" cy="16.9" r="1.9"/>
</g>
</svg>
